<mxfile host="Electron" modified="2024-12-28T05:10:07.385Z" agent="Mozilla/5.0 (X11; Linux x86_64) AppleWebKit/537.36 (KHTML, like Gecko) draw.io/24.0.4 Chrome/120.0.6099.109 Electron/28.1.0 Safari/537.36" etag="qToF7uSUFELs8vqWaDHr" version="24.0.4" type="device">
  <diagram name="Страница — 1" id="NdSyuFLK1fj1kUjA3B4n">
    <mxGraphModel dx="573" dy="367" grid="1" gridSize="10" guides="1" tooltips="1" connect="1" arrows="1" fold="1" page="1" pageScale="1" pageWidth="827" pageHeight="1169" math="0" shadow="0">
      <root>
        <mxCell id="0" />
        <mxCell id="1" parent="0" />
        <mxCell id="UGXJc9DiYx_G-A-Y2eRg-1" value="" style="rounded=1;whiteSpace=wrap;html=1;absoluteArcSize=1;arcSize=14;strokeWidth=2;" parent="1" vertex="1">
          <mxGeometry x="140" y="200" width="550" height="200" as="geometry" />
        </mxCell>
        <mxCell id="UGXJc9DiYx_G-A-Y2eRg-3" value="" style="rounded=0;whiteSpace=wrap;html=1;" parent="1" vertex="1">
          <mxGeometry x="150" y="210" width="150" height="180" as="geometry" />
        </mxCell>
        <mxCell id="UGXJc9DiYx_G-A-Y2eRg-4" value="&lt;b&gt;Master Connection&lt;/b&gt;" style="text;html=1;align=center;verticalAlign=middle;whiteSpace=wrap;rounded=0;" parent="1" vertex="1">
          <mxGeometry x="150" y="210" width="150" height="20" as="geometry" />
        </mxCell>
        <mxCell id="UGXJc9DiYx_G-A-Y2eRg-5" value="Status:" style="text;html=1;align=left;verticalAlign=middle;whiteSpace=wrap;rounded=0;" parent="1" vertex="1">
          <mxGeometry x="160" y="230" width="60" height="20" as="geometry" />
        </mxCell>
        <mxCell id="UGXJc9DiYx_G-A-Y2eRg-7" value="Name:" style="text;html=1;align=left;verticalAlign=middle;whiteSpace=wrap;rounded=0;" parent="1" vertex="1">
          <mxGeometry x="160" y="250" width="60" height="20" as="geometry" />
        </mxCell>
        <mxCell id="UGXJc9DiYx_G-A-Y2eRg-8" value="" style="edgeStyle=none;orthogonalLoop=1;jettySize=auto;html=1;rounded=0;dashed=1;" parent="1" target="UGXJc9DiYx_G-A-Y2eRg-3" edge="1">
          <mxGeometry width="80" relative="1" as="geometry">
            <mxPoint x="150" y="80" as="sourcePoint" />
            <mxPoint x="230" y="80" as="targetPoint" />
            <Array as="points" />
          </mxGeometry>
        </mxCell>
        <mxCell id="UGXJc9DiYx_G-A-Y2eRg-9" value="Цвет под тип сервера" style="edgeLabel;html=1;align=center;verticalAlign=middle;resizable=0;points=[];" parent="UGXJc9DiYx_G-A-Y2eRg-8" vertex="1" connectable="0">
          <mxGeometry x="-0.8806" y="-1" relative="1" as="geometry">
            <mxPoint x="-2" y="-18" as="offset" />
          </mxGeometry>
        </mxCell>
        <mxCell id="UGXJc9DiYx_G-A-Y2eRg-10" value="Connected" style="text;strokeColor=none;align=right;fillColor=none;html=1;verticalAlign=middle;whiteSpace=wrap;rounded=0;" parent="1" vertex="1">
          <mxGeometry x="230" y="230" width="60" height="20" as="geometry" />
        </mxCell>
        <mxCell id="UGXJc9DiYx_G-A-Y2eRg-11" value="microsoma" style="text;strokeColor=none;align=right;fillColor=none;html=1;verticalAlign=middle;whiteSpace=wrap;rounded=0;" parent="1" vertex="1">
          <mxGeometry x="230" y="250" width="60" height="20" as="geometry" />
        </mxCell>
        <mxCell id="UGXJc9DiYx_G-A-Y2eRg-12" value="host:" style="text;html=1;align=left;verticalAlign=middle;whiteSpace=wrap;rounded=0;" parent="1" vertex="1">
          <mxGeometry x="160" y="360" width="60" height="20" as="geometry" />
        </mxCell>
        <mxCell id="UGXJc9DiYx_G-A-Y2eRg-13" value="127.0.0.1:20202" style="text;strokeColor=none;align=right;fillColor=none;html=1;verticalAlign=middle;whiteSpace=wrap;rounded=0;" parent="1" vertex="1">
          <mxGeometry x="230" y="360" width="60" height="20" as="geometry" />
        </mxCell>
        <mxCell id="UGXJc9DiYx_G-A-Y2eRg-14" value="" style="endArrow=none;dashed=1;html=1;rounded=0;entryX=1;entryY=0.833;entryDx=0;entryDy=0;entryPerimeter=0;" parent="1" target="UGXJc9DiYx_G-A-Y2eRg-3" edge="1">
          <mxGeometry width="50" height="50" relative="1" as="geometry">
            <mxPoint x="150" y="360" as="sourcePoint" />
            <mxPoint x="290" y="359.94" as="targetPoint" />
          </mxGeometry>
        </mxCell>
        <mxCell id="UGXJc9DiYx_G-A-Y2eRg-15" value="" style="rounded=0;whiteSpace=wrap;html=1;" parent="1" vertex="1">
          <mxGeometry x="320" y="210" width="160" height="180" as="geometry" />
        </mxCell>
        <mxCell id="UGXJc9DiYx_G-A-Y2eRg-17" value="&lt;b&gt;Known Hosts&lt;/b&gt;" style="text;html=1;align=center;verticalAlign=middle;whiteSpace=wrap;rounded=0;" parent="1" vertex="1">
          <mxGeometry x="320" y="210" width="160" height="20" as="geometry" />
        </mxCell>
        <mxCell id="UGXJc9DiYx_G-A-Y2eRg-19" value="127.0.0.1:20202" style="text;html=1;align=left;verticalAlign=middle;whiteSpace=wrap;rounded=0;" parent="1" vertex="1">
          <mxGeometry x="330" y="230" width="60" height="20" as="geometry" />
        </mxCell>
        <mxCell id="UGXJc9DiYx_G-A-Y2eRg-20" value="Master" style="text;strokeColor=none;align=right;fillColor=none;html=1;verticalAlign=middle;whiteSpace=wrap;rounded=0;" parent="1" vertex="1">
          <mxGeometry x="410" y="230" width="60" height="20" as="geometry" />
        </mxCell>
        <mxCell id="UGXJc9DiYx_G-A-Y2eRg-22" value="" style="endArrow=none;dashed=1;html=1;rounded=0;entryX=1;entryY=0.833;entryDx=0;entryDy=0;entryPerimeter=0;" parent="1" target="UGXJc9DiYx_G-A-Y2eRg-15" edge="1">
          <mxGeometry width="50" height="50" relative="1" as="geometry">
            <mxPoint x="320" y="360" as="sourcePoint" />
            <mxPoint x="470" y="360" as="targetPoint" />
          </mxGeometry>
        </mxCell>
        <mxCell id="UGXJc9DiYx_G-A-Y2eRg-25" value="Connect" style="rounded=1;whiteSpace=wrap;html=1;" parent="1" vertex="1">
          <mxGeometry x="330" y="365" width="80" height="15" as="geometry" />
        </mxCell>
        <mxCell id="UGXJc9DiYx_G-A-Y2eRg-27" value="" style="rounded=0;whiteSpace=wrap;html=1;" parent="1" vertex="1">
          <mxGeometry x="500" y="210" width="160" height="70" as="geometry" />
        </mxCell>
        <mxCell id="UGXJc9DiYx_G-A-Y2eRg-28" value="&lt;b&gt;ID&lt;/b&gt;" style="text;html=1;align=center;verticalAlign=middle;whiteSpace=wrap;rounded=0;" parent="1" vertex="1">
          <mxGeometry x="500" y="210" width="160" height="20" as="geometry" />
        </mxCell>
        <mxCell id="UGXJc9DiYx_G-A-Y2eRg-30" value="Name:" style="text;html=1;align=left;verticalAlign=middle;whiteSpace=wrap;rounded=0;" parent="1" vertex="1">
          <mxGeometry x="510" y="230" width="60" height="20" as="geometry" />
        </mxCell>
        <mxCell id="UGXJc9DiYx_G-A-Y2eRg-31" value="&lt;u&gt;Microsoma&lt;/u&gt;" style="text;strokeColor=none;align=right;fillColor=none;html=1;verticalAlign=middle;whiteSpace=wrap;rounded=0;" parent="1" vertex="1">
          <mxGeometry x="590" y="230" width="60" height="20" as="geometry" />
        </mxCell>
        <mxCell id="UAAlNHdgz3jo1Fbqnn5t-1" value="" style="rounded=1;whiteSpace=wrap;html=1;absoluteArcSize=1;arcSize=14;strokeWidth=2;movable=0;resizable=0;rotatable=0;deletable=0;editable=0;locked=1;connectable=0;" vertex="1" parent="1">
          <mxGeometry x="139" y="585" width="550" height="200" as="geometry" />
        </mxCell>
        <mxCell id="UAAlNHdgz3jo1Fbqnn5t-2" value="" style="rounded=0;whiteSpace=wrap;html=1;movable=0;resizable=0;rotatable=0;deletable=0;editable=0;locked=1;connectable=0;" vertex="1" parent="1">
          <mxGeometry x="149" y="595" width="150" height="180" as="geometry" />
        </mxCell>
        <mxCell id="UAAlNHdgz3jo1Fbqnn5t-3" value="&lt;b&gt;Master Connection&lt;/b&gt;" style="text;html=1;align=center;verticalAlign=middle;whiteSpace=wrap;rounded=0;movable=0;resizable=0;rotatable=0;deletable=0;editable=0;locked=1;connectable=0;" vertex="1" parent="1">
          <mxGeometry x="149" y="595" width="150" height="20" as="geometry" />
        </mxCell>
        <mxCell id="UAAlNHdgz3jo1Fbqnn5t-4" value="Status:" style="text;html=1;align=left;verticalAlign=middle;whiteSpace=wrap;rounded=0;movable=0;resizable=0;rotatable=0;deletable=0;editable=0;locked=1;connectable=0;" vertex="1" parent="1">
          <mxGeometry x="159" y="615" width="60" height="20" as="geometry" />
        </mxCell>
        <mxCell id="UAAlNHdgz3jo1Fbqnn5t-5" value="Name:" style="text;html=1;align=left;verticalAlign=middle;whiteSpace=wrap;rounded=0;movable=0;resizable=0;rotatable=0;deletable=0;editable=0;locked=1;connectable=0;" vertex="1" parent="1">
          <mxGeometry x="159" y="635" width="60" height="20" as="geometry" />
        </mxCell>
        <mxCell id="UAAlNHdgz3jo1Fbqnn5t-6" value="Connected" style="text;strokeColor=none;align=right;fillColor=none;html=1;verticalAlign=middle;whiteSpace=wrap;rounded=0;movable=0;resizable=0;rotatable=0;deletable=0;editable=0;locked=1;connectable=0;" vertex="1" parent="1">
          <mxGeometry x="229" y="615" width="60" height="20" as="geometry" />
        </mxCell>
        <mxCell id="UAAlNHdgz3jo1Fbqnn5t-7" value="microsoma" style="text;strokeColor=none;align=right;fillColor=none;html=1;verticalAlign=middle;whiteSpace=wrap;rounded=0;movable=0;resizable=0;rotatable=0;deletable=0;editable=0;locked=1;connectable=0;" vertex="1" parent="1">
          <mxGeometry x="229" y="635" width="60" height="20" as="geometry" />
        </mxCell>
        <mxCell id="UAAlNHdgz3jo1Fbqnn5t-8" value="host:" style="text;html=1;align=left;verticalAlign=middle;whiteSpace=wrap;rounded=0;movable=0;resizable=0;rotatable=0;deletable=0;editable=0;locked=1;connectable=0;" vertex="1" parent="1">
          <mxGeometry x="159" y="745" width="60" height="20" as="geometry" />
        </mxCell>
        <mxCell id="UAAlNHdgz3jo1Fbqnn5t-9" value="127.0.0.1:20202" style="text;strokeColor=none;align=right;fillColor=none;html=1;verticalAlign=middle;whiteSpace=wrap;rounded=0;movable=0;resizable=0;rotatable=0;deletable=0;editable=0;locked=1;connectable=0;" vertex="1" parent="1">
          <mxGeometry x="229" y="745" width="60" height="20" as="geometry" />
        </mxCell>
        <mxCell id="UAAlNHdgz3jo1Fbqnn5t-10" value="" style="endArrow=none;dashed=1;html=1;rounded=0;entryX=1;entryY=0.833;entryDx=0;entryDy=0;entryPerimeter=0;movable=0;resizable=0;rotatable=0;deletable=0;editable=0;locked=1;connectable=0;" edge="1" target="UAAlNHdgz3jo1Fbqnn5t-2" parent="1">
          <mxGeometry width="50" height="50" relative="1" as="geometry">
            <mxPoint x="149" y="745" as="sourcePoint" />
            <mxPoint x="289" y="744.94" as="targetPoint" />
          </mxGeometry>
        </mxCell>
        <mxCell id="UAAlNHdgz3jo1Fbqnn5t-11" value="" style="rounded=0;whiteSpace=wrap;html=1;movable=0;resizable=0;rotatable=0;deletable=0;editable=0;locked=1;connectable=0;" vertex="1" parent="1">
          <mxGeometry x="319" y="595" width="160" height="180" as="geometry" />
        </mxCell>
        <mxCell id="UAAlNHdgz3jo1Fbqnn5t-12" value="&lt;b&gt;Known Hosts&lt;/b&gt;" style="text;html=1;align=center;verticalAlign=middle;whiteSpace=wrap;rounded=0;movable=0;resizable=0;rotatable=0;deletable=0;editable=0;locked=1;connectable=0;" vertex="1" parent="1">
          <mxGeometry x="319" y="595" width="160" height="20" as="geometry" />
        </mxCell>
        <mxCell id="UAAlNHdgz3jo1Fbqnn5t-13" value="127.0.0.1:20202" style="text;html=1;align=left;verticalAlign=middle;whiteSpace=wrap;rounded=0;movable=0;resizable=0;rotatable=0;deletable=0;editable=0;locked=1;connectable=0;" vertex="1" parent="1">
          <mxGeometry x="329" y="615" width="60" height="20" as="geometry" />
        </mxCell>
        <mxCell id="UAAlNHdgz3jo1Fbqnn5t-14" value="Master" style="text;strokeColor=none;align=right;fillColor=none;html=1;verticalAlign=middle;whiteSpace=wrap;rounded=0;movable=0;resizable=0;rotatable=0;deletable=0;editable=0;locked=1;connectable=0;" vertex="1" parent="1">
          <mxGeometry x="409" y="615" width="60" height="20" as="geometry" />
        </mxCell>
        <mxCell id="UAAlNHdgz3jo1Fbqnn5t-15" value="" style="endArrow=none;dashed=1;html=1;rounded=0;entryX=1;entryY=0.833;entryDx=0;entryDy=0;entryPerimeter=0;movable=0;resizable=0;rotatable=0;deletable=0;editable=0;locked=1;connectable=0;" edge="1" target="UAAlNHdgz3jo1Fbqnn5t-11" parent="1">
          <mxGeometry width="50" height="50" relative="1" as="geometry">
            <mxPoint x="319" y="745" as="sourcePoint" />
            <mxPoint x="469" y="745" as="targetPoint" />
          </mxGeometry>
        </mxCell>
        <mxCell id="UAAlNHdgz3jo1Fbqnn5t-16" value="Connect" style="rounded=1;whiteSpace=wrap;html=1;movable=0;resizable=0;rotatable=0;deletable=0;editable=0;locked=1;connectable=0;" vertex="1" parent="1">
          <mxGeometry x="329" y="750" width="80" height="15" as="geometry" />
        </mxCell>
        <mxCell id="UAAlNHdgz3jo1Fbqnn5t-17" value="" style="rounded=0;whiteSpace=wrap;html=1;movable=0;resizable=0;rotatable=0;deletable=0;editable=0;locked=1;connectable=0;" vertex="1" parent="1">
          <mxGeometry x="499" y="595" width="160" height="70" as="geometry" />
        </mxCell>
        <mxCell id="UAAlNHdgz3jo1Fbqnn5t-18" value="&lt;b&gt;ID&lt;/b&gt;" style="text;html=1;align=center;verticalAlign=middle;whiteSpace=wrap;rounded=0;movable=0;resizable=0;rotatable=0;deletable=0;editable=0;locked=1;connectable=0;" vertex="1" parent="1">
          <mxGeometry x="499" y="595" width="160" height="20" as="geometry" />
        </mxCell>
        <mxCell id="UAAlNHdgz3jo1Fbqnn5t-19" value="Name:" style="text;html=1;align=left;verticalAlign=middle;whiteSpace=wrap;rounded=0;movable=0;resizable=0;rotatable=0;deletable=0;editable=0;locked=1;connectable=0;" vertex="1" parent="1">
          <mxGeometry x="509" y="615" width="60" height="20" as="geometry" />
        </mxCell>
        <mxCell id="UAAlNHdgz3jo1Fbqnn5t-20" value="&lt;u&gt;Microsoma&lt;/u&gt;" style="text;strokeColor=none;align=right;fillColor=none;html=1;verticalAlign=middle;whiteSpace=wrap;rounded=0;movable=0;resizable=0;rotatable=0;deletable=0;editable=0;locked=1;connectable=0;" vertex="1" parent="1">
          <mxGeometry x="589" y="615" width="60" height="20" as="geometry" />
        </mxCell>
        <mxCell id="UAAlNHdgz3jo1Fbqnn5t-21" value="" style="rounded=0;whiteSpace=wrap;html=1;fillColor=none;strokeWidth=4;dashed=1;" vertex="1" parent="1">
          <mxGeometry x="160" y="600" width="130" height="170" as="geometry" />
        </mxCell>
      </root>
    </mxGraphModel>
  </diagram>
</mxfile>
